<svg xmlns="http://www.w3.org/2000/svg" version="1.1" xmlns:xlink="http://www.w3.org/1999/xlink" xmlns:svgjs="http://svgjs.com/svgjs" width="1440" height="560" preserveAspectRatio="none" viewBox="0 0 1440 560"><g mask="url(&quot;#SvgjsMask1243&quot;)" fill="none"><path d="M657.6 -4.81L722.55 32.69L722.55 107.69L657.6 145.19L592.64 107.69L592.64 32.69zM722.55 107.69L787.5 145.19L787.5 220.19L722.55 257.69L657.6 220.19L657.6 145.19zM657.6 220.19L722.55 257.69L722.55 332.69L657.6 370.19L592.64 332.69L592.64 257.69zM982.37 332.69L1047.32 370.19L1047.32 445.19L982.37 482.69L917.41 445.19L917.41 370.19zM1112.27 107.69L1177.23 145.19L1177.23 220.19L1112.27 257.69L1047.32 220.19L1047.32 145.19zM1047.32 220.19L1112.27 257.69L1112.27 332.69L1047.32 370.19L982.37 332.69L982.37 257.69zM1177.23 -4.81L1242.18 32.69L1242.18 107.69L1177.23 145.19L1112.27 107.69L1112.27 32.69z" stroke="rgba(51, 166, 3, 1)" stroke-width="2"></path><path d="M650.1 -4.81 a7.5 7.5 0 1 0 15 0 a7.5 7.5 0 1 0 -15 0zM715.05 32.69 a7.5 7.5 0 1 0 15 0 a7.5 7.5 0 1 0 -15 0zM715.05 107.69 a7.5 7.5 0 1 0 15 0 a7.5 7.5 0 1 0 -15 0zM650.1 145.19 a7.5 7.5 0 1 0 15 0 a7.5 7.5 0 1 0 -15 0zM585.14 107.69 a7.5 7.5 0 1 0 15 0 a7.5 7.5 0 1 0 -15 0zM585.14 32.69 a7.5 7.5 0 1 0 15 0 a7.5 7.5 0 1 0 -15 0zM780 145.19 a7.5 7.5 0 1 0 15 0 a7.5 7.5 0 1 0 -15 0zM780 220.19 a7.5 7.5 0 1 0 15 0 a7.5 7.5 0 1 0 -15 0zM715.05 257.69 a7.5 7.5 0 1 0 15 0 a7.5 7.5 0 1 0 -15 0zM650.1 220.19 a7.5 7.5 0 1 0 15 0 a7.5 7.5 0 1 0 -15 0zM715.05 332.69 a7.5 7.5 0 1 0 15 0 a7.5 7.5 0 1 0 -15 0zM650.1 370.19 a7.5 7.5 0 1 0 15 0 a7.5 7.5 0 1 0 -15 0zM585.14 332.69 a7.5 7.5 0 1 0 15 0 a7.5 7.5 0 1 0 -15 0zM585.14 257.69 a7.5 7.5 0 1 0 15 0 a7.5 7.5 0 1 0 -15 0zM974.87 332.69 a7.5 7.5 0 1 0 15 0 a7.5 7.5 0 1 0 -15 0zM1039.82 370.19 a7.5 7.5 0 1 0 15 0 a7.5 7.5 0 1 0 -15 0zM1039.82 445.19 a7.5 7.5 0 1 0 15 0 a7.5 7.5 0 1 0 -15 0zM974.87 482.69 a7.5 7.5 0 1 0 15 0 a7.5 7.5 0 1 0 -15 0zM909.91 445.19 a7.5 7.5 0 1 0 15 0 a7.5 7.5 0 1 0 -15 0zM909.91 370.19 a7.5 7.5 0 1 0 15 0 a7.5 7.5 0 1 0 -15 0zM1104.77 107.69 a7.5 7.5 0 1 0 15 0 a7.5 7.5 0 1 0 -15 0zM1169.73 145.19 a7.5 7.5 0 1 0 15 0 a7.5 7.5 0 1 0 -15 0zM1169.73 220.19 a7.5 7.5 0 1 0 15 0 a7.5 7.5 0 1 0 -15 0zM1104.77 257.69 a7.5 7.5 0 1 0 15 0 a7.5 7.5 0 1 0 -15 0zM1039.82 220.19 a7.5 7.5 0 1 0 15 0 a7.5 7.5 0 1 0 -15 0zM1039.82 145.19 a7.5 7.5 0 1 0 15 0 a7.5 7.5 0 1 0 -15 0zM1104.77 332.69 a7.5 7.5 0 1 0 15 0 a7.5 7.5 0 1 0 -15 0zM974.87 257.69 a7.5 7.5 0 1 0 15 0 a7.5 7.5 0 1 0 -15 0zM1169.73 -4.81 a7.5 7.5 0 1 0 15 0 a7.5 7.5 0 1 0 -15 0zM1234.68 32.69 a7.5 7.5 0 1 0 15 0 a7.5 7.5 0 1 0 -15 0zM1234.68 107.69 a7.5 7.5 0 1 0 15 0 a7.5 7.5 0 1 0 -15 0zM1104.77 32.69 a7.5 7.5 0 1 0 15 0 a7.5 7.5 0 1 0 -15 0z" fill="rgba(51, 166, 3, 1)"></path><path d="M57.67 33.87L100.1 58.37L100.1 107.37L57.67 131.87L15.23 107.37L15.23 58.37zM57.67 474.87L100.1 499.37L100.1 548.37L57.67 572.87L15.23 548.37L15.23 499.37zM142.54 33.87L184.98 58.37L184.98 107.37L142.54 131.87L100.1 107.37L100.1 58.37zM100.1 107.37L142.54 131.87L142.54 180.87L100.1 205.37L57.67 180.87L57.67 131.87zM142.54 180.87L184.98 205.37L184.98 254.37L142.54 278.87L100.1 254.37L100.1 205.37zM142.54 474.87L184.98 499.37L184.98 548.37L142.54 572.87L100.1 548.37L100.1 499.37zM100.1 548.37L142.54 572.87L142.54 621.87L100.1 646.37L57.67 621.87L57.67 572.87zM269.85 548.37L312.29 572.87L312.29 621.87L269.85 646.37L227.41 621.87L227.41 572.87zM397.16 33.87L439.59 58.37L439.59 107.37L397.16 131.87L354.72 107.37L354.72 58.37zM354.72 107.37L397.16 131.87L397.16 180.87L354.72 205.37L312.29 180.87L312.29 131.87zM397.16 327.87L439.59 352.37L439.59 401.37L397.16 425.87L354.72 401.37L354.72 352.37zM397.16 474.87L439.59 499.37L439.59 548.37L397.16 572.87L354.72 548.37L354.72 499.37zM482.03 180.87L524.47 205.37L524.47 254.37L482.03 278.87L439.59 254.37L439.59 205.37zM524.47 107.37L566.9 131.87L566.9 180.87L524.47 205.37L482.03 180.87L482.03 131.87zM566.9 180.87L609.34 205.37L609.34 254.37L566.9 278.87L524.47 254.37L524.47 205.37zM524.47 548.37L566.9 572.87L566.9 621.87L524.47 646.37L482.03 621.87L482.03 572.87zM609.34 -39.63L651.78 -15.13L651.78 33.87L609.34 58.37L566.9 33.87L566.9 -15.13zM651.78 180.87L694.21 205.37L694.21 254.37L651.78 278.87L609.34 254.37L609.34 205.37zM651.78 327.87L694.21 352.37L694.21 401.37L651.78 425.87L609.34 401.37L609.34 352.37zM694.21 -39.63L736.65 -15.13L736.65 33.87L694.21 58.37L651.78 33.87L651.78 -15.13zM736.65 33.87L779.09 58.37L779.09 107.37L736.65 131.87L694.21 107.37L694.21 58.37zM694.21 254.37L736.65 278.87L736.65 327.87L694.21 352.37L651.78 327.87L651.78 278.87zM736.65 327.87L779.09 352.37L779.09 401.37L736.65 425.87L694.21 401.37L694.21 352.37zM694.21 548.37L736.65 572.87L736.65 621.87L694.21 646.37L651.78 621.87L651.78 572.87zM821.52 33.87L863.96 58.37L863.96 107.37L821.52 131.87L779.09 107.37L779.09 58.37zM779.09 107.37L821.52 131.87L821.52 180.87L779.09 205.37L736.65 180.87L736.65 131.87zM821.52 327.87L863.96 352.37L863.96 401.37L821.52 425.87L779.09 401.37L779.09 352.37zM779.09 401.37L821.52 425.87L821.52 474.87L779.09 499.37L736.65 474.87L736.65 425.87zM821.52 474.87L863.96 499.37L863.96 548.37L821.52 572.87L779.09 548.37L779.09 499.37zM863.96 401.37L906.4 425.87L906.4 474.87L863.96 499.37L821.52 474.87L821.52 425.87zM863.96 548.37L906.4 572.87L906.4 621.87L863.96 646.37L821.52 621.87L821.52 572.87zM991.27 33.87L1033.7 58.37L1033.7 107.37L991.27 131.87L948.83 107.37L948.83 58.37zM1033.7 107.37L1076.14 131.87L1076.14 180.87L1033.7 205.37L991.27 180.87L991.27 131.87zM1076.14 327.87L1118.58 352.37L1118.58 401.37L1076.14 425.87L1033.7 401.37L1033.7 352.37zM1161.01 33.87L1203.45 58.37L1203.45 107.37L1161.01 131.87L1118.58 107.37L1118.58 58.37zM1118.58 254.37L1161.01 278.87L1161.01 327.87L1118.58 352.37L1076.14 327.87L1076.14 278.87zM1118.58 548.37L1161.01 572.87L1161.01 621.87L1118.58 646.37L1076.14 621.87L1076.14 572.87zM1203.45 -39.63L1245.89 -15.13L1245.89 33.87L1203.45 58.37L1161.01 33.87L1161.01 -15.13zM1203.45 107.37L1245.89 131.87L1245.89 180.87L1203.45 205.37L1161.01 180.87L1161.01 131.87zM1245.89 180.87L1288.32 205.37L1288.32 254.37L1245.89 278.87L1203.45 254.37L1203.45 205.37zM1203.45 254.37L1245.89 278.87L1245.89 327.87L1203.45 352.37L1161.01 327.87L1161.01 278.87zM1245.89 474.87L1288.32 499.37L1288.32 548.37L1245.89 572.87L1203.45 548.37L1203.45 499.37zM1203.45 548.37L1245.89 572.87L1245.89 621.87L1203.45 646.37L1161.01 621.87L1161.01 572.87zM1288.32 -39.63L1330.76 -15.13L1330.76 33.87L1288.32 58.37L1245.89 33.87L1245.89 -15.13zM1330.76 33.87L1373.2 58.37L1373.2 107.37L1330.76 131.87L1288.32 107.37L1288.32 58.37zM1288.32 107.37L1330.76 131.87L1330.76 180.87L1288.32 205.37L1245.89 180.87L1245.89 131.87zM1330.76 180.87L1373.2 205.37L1373.2 254.37L1330.76 278.87L1288.32 254.37L1288.32 205.37zM1288.32 254.37L1330.76 278.87L1330.76 327.87L1288.32 352.37L1245.89 327.87L1245.89 278.87zM1288.32 401.37L1330.76 425.87L1330.76 474.87L1288.32 499.37L1245.89 474.87L1245.89 425.87zM1288.32 548.37L1330.76 572.87L1330.76 621.87L1288.32 646.37L1245.89 621.87L1245.89 572.87z" stroke="rgba(70, 223, 6, 1)" stroke-width="2"></path></g><defs><mask id="SvgjsMask1243"><rect width="1440" height="560" fill="#ffffff"></rect></mask></defs></svg>