<svg version="1.1" id="Layer_1" xmlns="http://www.w3.org/2000/svg" xmlns:xlink="http://www.w3.org/1999/xlink" x="0px" y="0px"
	 width="100%" viewBox="55 208 393 68" xml:space="preserve">
<path fill="#4BE00B" opacity="1.000000" stroke="none" 
	d="
M348.133026,208.240005 
	C357.488342,208.239792 357.498199,208.236008 360.711365,216.600113 
	C364.223755,225.743195 367.715424,234.894226 371.619202,245.095169 
	C372.624207,242.930710 373.332642,241.603287 373.872406,240.210495 
	C377.532806,230.765396 381.289917,221.354004 384.713684,211.823227 
	C385.747070,208.946533 387.188782,207.995148 390.124084,208.181839 
	C393.901276,208.422073 397.705322,208.240295 401.809418,208.240295 
	C403.759827,229.909378 405.666077,251.088120 407.606262,272.643799 
	C402.723602,272.643799 397.991486,272.643799 392.844238,272.643799 
	C391.853912,260.636963 390.858643,248.570053 389.863342,236.503174 
	C389.597565,236.398529 389.331787,236.293884 389.066010,236.189240 
	C388.368805,238.082733 387.645233,239.967026 386.978851,241.871307 
	C383.852051,250.806351 380.582184,259.696228 377.706665,268.711731 
	C376.637573,272.063568 374.897522,272.878052 371.586731,272.868896 
	C368.384644,272.860077 366.943939,271.842987 365.940948,268.806824 
	C362.361298,257.970734 358.482788,247.233307 353.748840,236.531464 
	C352.754822,248.503189 351.760803,260.474915 350.744232,272.718201 
	C345.847290,272.718201 341.123016,272.718201 335.971588,272.718201 
	C337.911224,251.187088 339.829803,229.889832 341.780151,208.239975 
	C344.067505,208.239975 345.870453,208.239975 348.133026,208.240005 
z"/>
<path fill="#070707" opacity="1.000000" stroke="none" 
	d="
M60.245518,273.012573 
	C58.654152,272.259979 56.559490,271.515808 56.552917,270.753632 
	C56.375046,250.134995 56.411015,229.514511 56.411015,209.064911 
	C66.610291,209.064911 76.413795,208.409088 86.081711,209.272156 
	C93.835312,209.964325 98.999519,216.045853 100.187408,223.433105 
	C101.534760,231.812042 99.540512,238.976044 92.197052,243.986008 
	C90.854630,244.901871 89.334602,245.557404 87.602348,246.491806 
	C94.826660,255.197205 101.902405,263.723602 109.608597,273.009674 
	C103.331047,273.009674 97.920685,273.187134 92.537743,272.881592 
	C91.235535,272.807648 89.758049,271.350861 88.814285,270.168335 
	C83.231415,263.172974 77.782112,256.071045 71.466095,247.948059 
	C71.466095,256.953735 71.466095,264.662872 71.466095,273.012573 
	C67.572449,273.012573 64.143883,273.012573 60.245518,273.012573 
M71.100357,229.471741 
	C71.100357,231.911545 71.100357,234.351334 71.100357,236.948181 
	C76.210327,236.934723 81.543655,238.016876 83.844643,232.863815 
	C84.998756,230.279129 84.844139,226.017487 83.422493,223.613571 
	C80.843018,219.251862 75.860023,220.066498 71.100357,220.179367 
	C71.100357,223.257431 71.100357,225.885025 71.100357,229.471741 
z"/>
<path fill="#050505" opacity="1.000000" stroke="none" 
	d="
M146.195068,240.914307 
	C147.272766,243.352036 148.169693,245.472458 149.315140,248.180405 
	C152.138992,240.712051 156.708847,235.319473 163.991333,232.962967 
	C171.088745,230.666336 178.012589,231.256500 184.703995,235.348969 
	C183.202103,238.448944 181.839142,241.262115 180.326447,244.384369 
	C174.476196,242.484985 168.713638,241.704956 165.088165,248.088821 
	C163.035629,251.703003 163.268509,255.527222 165.828293,258.884216 
	C169.647659,263.893066 174.631042,263.396393 180.168518,261.212097 
	C181.637985,264.223022 183.072281,267.161865 184.489563,270.065857 
	C172.183411,280.095398 154.035217,272.510376 148.756607,254.893127 
	C144.122559,254.893127 139.340805,254.893143 134.559036,254.893143 
	C129.902939,254.893143 125.246849,254.893127 120.590759,254.893127 
	C120.198166,255.241287 119.805573,255.589432 119.412979,255.937592 
	C121.072166,257.975128 122.332008,260.761749 124.469833,261.901428 
	C129.655670,264.665955 134.446014,262.924042 138.524307,258.742065 
	C141.739044,260.341888 144.836792,261.883484 147.933044,263.424316 
	C144.092041,271.440826 134.187210,275.633453 123.566216,273.868164 
	C114.357132,272.337585 106.695412,264.397278 105.782280,255.437637 
	C104.784859,245.651093 110.094734,236.851852 119.205200,233.193970 
	C128.871094,229.313049 139.487762,232.244720 146.195068,240.914307 
M121.128395,244.280823 
	C121.663712,245.221741 122.153244,246.943390 122.741730,246.977905 
	C126.810059,247.216507 130.899002,247.103577 135.056000,247.103577 
	C133.602356,240.041382 127.421257,238.589615 121.128395,244.280823 
z"/>
<path fill="#050505" opacity="1.000000" stroke="none" 
	d="
M250.670624,237.299011 
	C250.670624,235.684525 250.670624,234.537033 250.670624,233.131348 
	C255.234406,233.131348 259.492065,233.131348 263.695160,233.131348 
	C263.695160,242.824493 264.217804,252.575592 263.497894,262.234070 
	C263.070374,267.970062 258.590576,271.991364 252.920578,272.781891 
	C246.760330,273.640808 240.299576,273.993561 234.180923,273.108246 
	C225.386826,271.835815 221.353989,266.520905 221.046356,257.573853 
	C220.817764,250.925629 221.001373,244.263199 220.297485,237.247391 
	C218.872009,239.844910 217.446518,242.442444 215.872833,245.310028 
	C215.167877,245.127853 214.412628,244.983994 213.691925,244.738632 
	C205.287079,241.877060 200.355072,245.313492 200.253250,254.202087 
	C200.182892,260.343811 200.239716,266.486969 200.239716,272.817810 
	C195.649033,272.817810 191.367233,272.817810 186.746948,272.817810 
	C186.746948,259.608612 186.746948,246.413406 186.746948,233.044357 
	C191.218719,233.044357 195.508591,233.044357 199.962997,233.044357 
	C200.147003,234.392227 200.321121,235.667648 200.521988,237.138962 
	C201.107559,236.966812 201.637070,236.972473 201.897919,236.710571 
	C206.722580,231.866226 212.185379,231.137390 218.838455,232.611877 
	C223.723572,233.694534 229.041534,232.824127 234.963135,232.824127 
	C234.963135,240.302948 234.789444,247.556808 235.019684,254.797836 
	C235.194809,260.306000 237.747971,262.851990 242.473175,262.893616 
	C246.679184,262.930664 249.745102,261.139160 250.054062,256.698425 
	C250.491974,250.403793 250.486572,244.078293 250.670624,237.299011 
z"/>
<path fill="#4ADF0A" opacity="1.000000" stroke="none" 
	d="
M409.715027,260.972961 
	C409.715179,243.192566 409.715179,225.906738 409.715179,208.439072 
	C422.209320,208.439072 434.146118,208.439072 446.443176,208.439072 
	C446.443176,212.679214 446.443176,216.730438 446.443176,221.312485 
	C439.300812,221.312485 432.212646,221.312485 424.809082,221.312485 
	C424.809082,225.737335 424.809082,229.641342 424.809082,233.991028 
	C431.666046,233.991028 438.432678,233.991028 445.522766,233.991028 
	C445.522766,238.474579 445.522766,242.520325 445.522766,247.023682 
	C438.610474,247.023682 431.848480,247.023682 424.788269,247.023682 
	C424.788269,251.390793 424.788269,255.317932 424.788269,259.877502 
	C431.879211,259.877502 439.083832,259.877502 446.536194,259.877502 
	C446.536194,264.424683 446.536194,268.351349 446.536194,272.644470 
	C434.460358,272.644470 422.392792,272.644470 409.714844,272.644470 
	C409.714844,269.001343 409.714844,265.234436 409.715027,260.972961 
z"/>
<path fill="#050505" opacity="1.000000" stroke="none" 
	d="
M305.043030,274.095917 
	C296.468628,273.462524 292.906494,270.351379 291.682739,262.335663 
	C291.209167,259.233643 291.301788,256.038605 291.229401,252.883804 
	C291.161041,249.905136 291.214722,246.923676 291.214722,243.732483 
	C289.341339,243.490036 287.752014,243.284348 285.833435,243.036057 
	C285.833435,239.818405 285.833435,236.591629 285.833435,233.133347 
	C287.446533,232.985184 289.042145,232.838638 291.137146,232.646225 
	C291.137146,227.865799 291.137146,223.123444 291.137146,218.154022 
	C295.904816,218.154022 300.171021,218.154022 304.923706,218.154022 
	C304.923706,222.776779 304.923706,227.505859 304.923706,232.641373 
	C307.960846,232.786896 310.546112,232.910782 313.412292,233.048111 
	C313.412292,236.385040 313.412292,239.617004 313.412292,243.095123 
	C310.670593,243.253540 308.057739,243.404495 305.106781,243.574997 
	C305.106781,247.721176 305.037079,251.700378 305.123596,255.676178 
	C305.244507,261.233856 306.236389,262.025848 311.873749,261.105652 
	C312.936249,264.499329 314.010101,267.929321 315.342010,272.183533 
	C311.824615,272.865631 308.653534,273.480591 305.043030,274.095917 
z"/>
<path fill="#040404" opacity="1.000000" stroke="none" 
	d="
M269.137268,268.805908 
	C269.137238,256.709229 269.137238,245.092117 269.137238,233.177795 
	C273.838379,233.177795 278.217865,233.177795 282.821228,233.177795 
	C282.821228,246.320572 282.821228,259.391785 282.821228,273.004669 
	C279.041718,273.004669 275.246552,273.242523 271.522034,272.834808 
	C270.608551,272.734833 269.925995,270.525208 269.137268,268.805908 
z"/>
<path fill="#070707" opacity="1.000000" stroke="none" 
	d="
M319.320679,258.248779 
	C323.785858,255.259872 327.813232,255.556488 331.305573,259.033997 
	C334.141663,261.858032 334.805664,265.409119 332.955872,269.062103 
	C331.040833,272.843903 327.649139,275.065796 323.627960,273.824860 
	C320.973633,273.005768 318.184753,270.709473 316.751740,268.303070 
	C314.703003,264.862762 316.142700,261.284515 319.320679,258.248779 
z"/>
<path fill="#070707" opacity="1.000000" stroke="none" 
	d="
M279.838318,208.851593 
	C284.112152,211.451035 285.871246,215.278397 283.710968,219.135803 
	C282.368652,221.532623 278.907013,223.552841 276.076538,224.106735 
	C272.292084,224.847305 269.605682,222.078751 268.453461,218.393021 
	C266.470306,212.048950 272.208710,207.043777 279.838318,208.851593 
z"/>
<path fill="#F7F7F7" opacity="1.000000" stroke="none" 
	d="
M71.100357,228.992188 
	C71.100357,225.885025 71.100357,223.257431 71.100357,220.179367 
	C75.860023,220.066498 80.843018,219.251862 83.422493,223.613571 
	C84.844139,226.017487 84.998756,230.279129 83.844643,232.863815 
	C81.543655,238.016876 76.210327,236.934723 71.100357,236.948181 
	C71.100357,234.351334 71.100357,231.911545 71.100357,228.992188 
z"/>
<path fill="#FAFAFA" opacity="1.000000" stroke="none" 
	d="
M121.383385,243.927490 
	C127.421257,238.589615 133.602356,240.041382 135.056000,247.103577 
	C130.899002,247.103577 126.810059,247.216507 122.741730,246.977905 
	C122.153244,246.943390 121.663712,245.221741 121.383385,243.927490 
z"/>
</svg>